<svg width="3909" height="1080" viewBox="0 0 3909 1080" fill="none" xmlns="http://www.w3.org/2000/svg">
<rect width="3909" height="1080" fill="black"/>
<path d="M670.38 476.2H696.21V567.76C696.21 577 698.24 584.28 702.3 589.6C706.36 594.78 712.87 597.37 721.83 597.37C730.79 597.37 737.3 594.78 741.36 589.6C745.42 584.28 747.45 577 747.45 567.76V476.2H773.28V567.76C773.28 583.86 769.01 596.81 760.47 606.61C751.93 616.27 739.05 621.1 721.83 621.1C704.47 621.1 691.52 616.27 682.98 606.61C674.58 596.81 670.38 583.86 670.38 567.76V476.2ZM809.502 619V476.2H856.542C871.522 476.2 882.722 479.98 890.142 487.54C897.702 495.1 901.482 505.18 901.482 517.78V528.91C901.482 541.51 897.702 551.66 890.142 559.36C882.722 566.92 871.522 570.7 856.542 570.7H834.702V619H809.502ZM856.542 500.35H834.702V546.55H856.542C862.702 546.55 867.392 545.01 870.612 541.93C873.972 538.85 875.652 534.51 875.652 528.91V517.78C875.652 512.32 873.972 508.05 870.612 504.97C867.392 501.89 862.702 500.35 856.542 500.35ZM1024.59 609.76C1021.09 611.86 1015.28 614.31 1007.16 617.11C999.178 619.77 989.798 621.1 979.018 621.1C966.838 621.1 956.618 618.58 948.358 613.54C940.238 608.5 934.078 601.57 929.878 592.75C925.678 583.93 923.578 573.85 923.578 562.51V532.48C923.578 520.86 925.678 510.71 929.878 502.03C934.078 493.21 940.308 486.35 948.568 481.45C956.968 476.55 967.468 474.1 980.068 474.1C986.228 474.1 992.598 474.8 999.178 476.2C1005.76 477.46 1012.97 479.84 1020.81 483.34L1013.04 505.39C1006.18 502.73 1000.23 500.84 995.188 499.72C990.288 498.46 985.388 497.83 980.488 497.83C969.568 497.83 961.658 500.98 956.758 507.28C951.858 513.44 949.408 521.84 949.408 532.48V562.51C949.408 572.59 951.858 580.85 956.758 587.29C961.798 593.73 969.638 596.95 980.278 596.95C983.498 596.95 986.998 596.67 990.778 596.11C994.558 595.55 998.198 594.78 1001.7 593.8V562.51H978.598V540.46H1024.59V609.76ZM1081.82 566.5V619H1056.62V476.2H1104.29C1118.71 476.2 1129.77 479.91 1137.47 487.33C1145.31 494.61 1149.23 504.41 1149.23 516.73V525.76C1149.23 533.88 1147.48 541.02 1143.98 547.18C1140.48 553.34 1135.44 558.03 1128.86 561.25C1140.34 580.85 1150.14 600.1 1158.26 619H1129.49C1122.49 601.5 1114.16 584 1104.5 566.5H1081.82ZM1104.29 499.3H1081.82V543.4H1104.29C1110.45 543.4 1115.14 541.86 1118.36 538.78C1121.72 535.56 1123.4 531.22 1123.4 525.76V516.73C1123.4 511.41 1121.72 507.21 1118.36 504.13C1115.14 500.91 1110.45 499.3 1104.29 499.3ZM1285.6 532.48V562.51C1285.6 580.71 1281.05 595.06 1271.95 605.56C1262.85 615.92 1249.55 621.1 1232.05 621.1C1214.41 621.1 1201.04 615.92 1191.94 605.56C1182.98 595.06 1178.5 580.71 1178.5 562.51V532.48C1178.5 514.28 1182.98 500 1191.94 489.64C1201.04 479.28 1214.41 474.1 1232.05 474.1C1249.55 474.1 1262.85 479.28 1271.95 489.64C1281.05 500 1285.6 514.28 1285.6 532.48ZM1259.77 532.48C1259.77 521 1257.53 512.39 1253.05 506.65C1248.57 500.77 1241.57 497.83 1232.05 497.83C1222.53 497.83 1215.53 500.77 1211.05 506.65C1206.57 512.39 1204.33 521 1204.33 532.48V562.51C1204.33 573.99 1206.57 582.67 1211.05 588.55C1215.53 594.43 1222.53 597.37 1232.05 597.37C1241.57 597.37 1248.57 594.43 1253.05 588.55C1257.53 582.67 1259.77 573.99 1259.77 562.51V532.48ZM1342.86 532.69L1350.84 585.61L1379.4 476.2H1402.08L1430.43 584.77L1439.25 532.69L1450.17 476.2H1475.79L1443.66 619H1417.83L1390.32 512.74L1362.6 619H1336.77L1304.64 476.2H1331.94L1342.86 532.69ZM1574.15 597.79C1590.39 597.79 1598.51 591.77 1598.51 579.73C1598.51 574.83 1597.25 570.98 1594.73 568.18C1592.35 565.38 1587.87 562.93 1581.29 560.83L1564.07 555.16C1543.49 548.44 1533.2 534.93 1533.2 514.63C1533.2 502.87 1536.84 493.21 1544.12 485.65C1551.54 477.95 1563.09 474.1 1578.77 474.1C1585.35 474.1 1591.86 474.87 1598.3 476.41C1604.74 477.81 1611.6 480.12 1618.88 483.34L1611.11 504.97C1604.39 502.31 1598.65 500.42 1593.89 499.3C1589.27 498.04 1584.51 497.41 1579.61 497.41C1573.17 497.41 1568.06 498.6 1564.28 500.98C1560.64 503.22 1558.82 507.35 1558.82 513.37C1558.82 517.85 1560.08 521.56 1562.6 524.5C1565.26 527.3 1569.6 529.68 1575.62 531.64L1592.84 537.31C1603.2 540.81 1610.97 545.92 1616.15 552.64C1621.47 559.22 1624.13 567.97 1624.13 578.89C1624.13 591.49 1620.14 601.71 1612.16 609.55C1604.18 617.25 1591.65 621.1 1574.57 621.1C1567.85 621.1 1560.85 620.33 1553.57 618.79C1546.43 617.11 1538.59 614.31 1530.05 610.39L1537.82 588.76C1545.66 592.12 1552.31 594.5 1557.77 595.9C1563.37 597.16 1568.83 597.79 1574.15 597.79ZM1752.77 532.48V562.51C1752.77 580.71 1748.22 595.06 1739.12 605.56C1730.02 615.92 1716.72 621.1 1699.22 621.1C1681.58 621.1 1668.21 615.92 1659.11 605.56C1650.15 595.06 1645.67 580.71 1645.67 562.51V532.48C1645.67 514.28 1650.15 500 1659.11 489.64C1668.21 479.28 1681.58 474.1 1699.22 474.1C1716.72 474.1 1730.02 479.28 1739.12 489.64C1748.22 500 1752.77 514.28 1752.77 532.48ZM1726.94 532.48C1726.94 521 1724.7 512.39 1720.22 506.65C1715.74 500.77 1708.74 497.83 1699.22 497.83C1689.7 497.83 1682.7 500.77 1678.22 506.65C1673.74 512.39 1671.5 521 1671.5 532.48V562.51C1671.5 573.99 1673.74 582.67 1678.22 588.55C1682.7 594.43 1689.7 597.37 1699.22 597.37C1708.74 597.37 1715.74 594.43 1720.22 588.55C1724.7 582.67 1726.94 573.99 1726.94 562.51V532.48ZM1859.16 564.19H1811.28V619H1786.08V476.2H1865.46V500.35H1811.28V540.04H1859.16V564.19ZM1875.1 500.35V476.2H1980.1V500.35H1940.2V619H1915V500.35H1875.1ZM2026.59 532.69L2034.57 585.61L2063.13 476.2H2085.81L2114.16 584.77L2122.98 532.69L2133.9 476.2H2159.52L2127.39 619H2101.56L2074.05 512.74L2046.33 619H2020.5L1988.37 476.2H2015.67L2026.59 532.69ZM2254.42 619L2245.6 591.07H2196.67L2187.85 619H2162.86L2210.53 476.2H2232.79L2280.67 619H2254.42ZM2210.32 547.39L2203.81 567.97H2238.25L2231.74 547.39L2221.24 511.27L2210.32 547.39ZM2329.72 566.5V619H2304.52V476.2H2352.19C2366.61 476.2 2377.67 479.91 2385.37 487.33C2393.21 494.61 2397.13 504.41 2397.13 516.73V525.76C2397.13 533.88 2395.38 541.02 2391.88 547.18C2388.38 553.34 2383.34 558.03 2376.76 561.25C2388.24 580.85 2398.04 600.1 2406.16 619H2377.39C2370.39 601.5 2362.06 584 2352.4 566.5H2329.72ZM2352.19 499.3H2329.72V543.4H2352.19C2358.35 543.4 2363.04 541.86 2366.26 538.78C2369.62 535.56 2371.3 531.22 2371.3 525.76V516.73C2371.3 511.41 2369.62 507.21 2366.26 504.13C2363.04 500.91 2358.35 499.3 2352.19 499.3ZM2515.23 594.85V619H2432.49V476.2H2513.13V500.35H2457.69V534.58H2506.83V558.73H2457.69V594.85H2515.23ZM2618.2 597.79C2634.44 597.79 2642.56 591.77 2642.56 579.73C2642.56 574.83 2641.3 570.98 2638.78 568.18C2636.4 565.38 2631.92 562.93 2625.34 560.83L2608.12 555.16C2587.54 548.44 2577.25 534.93 2577.25 514.63C2577.25 502.87 2580.89 493.21 2588.17 485.65C2595.59 477.95 2607.14 474.1 2622.82 474.1C2629.4 474.1 2635.91 474.87 2642.35 476.41C2648.79 477.81 2655.65 480.12 2662.93 483.34L2655.16 504.97C2648.44 502.31 2642.7 500.42 2637.94 499.3C2633.32 498.04 2628.56 497.41 2623.66 497.41C2617.22 497.41 2612.11 498.6 2608.33 500.98C2604.69 503.22 2602.87 507.35 2602.87 513.37C2602.87 517.85 2604.13 521.56 2606.65 524.5C2609.31 527.3 2613.65 529.68 2619.67 531.64L2636.89 537.31C2647.25 540.81 2655.02 545.92 2660.2 552.64C2665.52 559.22 2668.18 567.97 2668.18 578.89C2668.18 591.49 2664.19 601.71 2656.21 609.55C2648.23 617.25 2635.7 621.1 2618.62 621.1C2611.9 621.1 2604.9 620.33 2597.62 618.79C2590.48 617.11 2582.64 614.31 2574.1 610.39L2581.87 588.76C2589.71 592.12 2596.36 594.5 2601.82 595.9C2607.42 597.16 2612.88 597.79 2618.2 597.79ZM2678.8 500.35V476.2H2783.8V500.35H2743.9V619H2718.7V500.35H2678.8ZM2802.99 476.2H2828.82V567.76C2828.82 577 2830.85 584.28 2834.91 589.6C2838.97 594.78 2845.48 597.37 2854.44 597.37C2863.4 597.37 2869.91 594.78 2873.97 589.6C2878.03 584.28 2880.06 577 2880.06 567.76V476.2H2905.89V567.76C2905.89 583.86 2901.62 596.81 2893.08 606.61C2884.54 616.27 2871.66 621.1 2854.44 621.1C2837.08 621.1 2824.13 616.27 2815.59 606.61C2807.19 596.81 2802.99 583.86 2802.99 567.76V476.2ZM2942.11 619V476.2H2990.41C3007.49 476.2 3020.51 480.96 3029.47 490.48C3038.43 500 3042.91 514 3042.91 532.48V562.51C3042.91 581.13 3038.43 595.2 3029.47 604.72C3020.51 614.24 3007.49 619 2990.41 619H2942.11ZM2989.36 500.35H2967.31V594.85H2989.36C2999.3 594.85 3006.37 592.4 3010.57 587.5C3014.91 582.6 3017.08 574.27 3017.08 562.51V532.48C3017.08 520.86 3014.91 512.6 3010.57 507.7C3006.37 502.8 2999.3 500.35 2989.36 500.35ZM3101.43 619H3076.23V476.2H3101.43V619ZM3241.84 532.48V562.51C3241.84 580.71 3237.29 595.06 3228.19 605.56C3219.09 615.92 3205.79 621.1 3188.29 621.1C3170.65 621.1 3157.28 615.92 3148.18 605.56C3139.22 595.06 3134.74 580.71 3134.74 562.51V532.48C3134.74 514.28 3139.22 500 3148.18 489.64C3157.28 479.28 3170.65 474.1 3188.29 474.1C3205.79 474.1 3219.09 479.28 3228.19 489.64C3237.29 500 3241.84 514.28 3241.84 532.48ZM3216.01 532.48C3216.01 521 3213.77 512.39 3209.29 506.65C3204.81 500.77 3197.81 497.83 3188.29 497.83C3178.77 497.83 3171.77 500.77 3167.29 506.65C3162.81 512.39 3160.57 521 3160.57 532.48V562.51C3160.57 573.99 3162.81 582.67 3167.29 588.55C3171.77 594.43 3178.77 597.37 3188.29 597.37C3197.81 597.37 3204.81 594.43 3209.29 588.55C3213.77 582.67 3216.01 573.99 3216.01 562.51V532.48Z" fill="white"/>
</svg>
