<svg width="2572" height="148" viewBox="0 0 2572 148" fill="none" xmlns="http://www.w3.org/2000/svg">
<path d="M0.38 2.2H26.21V93.76C26.21 103 28.24 110.28 32.3 115.6C36.36 120.78 42.87 123.37 51.83 123.37C60.79 123.37 67.3 120.78 71.36 115.6C75.42 110.28 77.45 103 77.45 93.76V2.2H103.28V93.76C103.28 109.86 99.01 122.81 90.47 132.61C81.93 142.27 69.05 147.1 51.83 147.1C34.47 147.1 21.52 142.27 12.98 132.61C4.58 122.81 0.38 109.86 0.38 93.76V2.2ZM139.502 145V2.2H186.542C201.522 2.2 212.722 5.98 220.142 13.54C227.702 21.1 231.482 31.18 231.482 43.78V54.91C231.482 67.51 227.702 77.66 220.142 85.36C212.722 92.92 201.522 96.7 186.542 96.7H164.702V145H139.502ZM186.542 26.35H164.702V72.55H186.542C192.702 72.55 197.392 71.01 200.612 67.93C203.972 64.85 205.652 60.51 205.652 54.91V43.78C205.652 38.32 203.972 34.05 200.612 30.97C197.392 27.89 192.702 26.35 186.542 26.35ZM354.588 135.76C351.088 137.86 345.278 140.31 337.158 143.11C329.178 145.77 319.798 147.1 309.018 147.1C296.838 147.1 286.618 144.58 278.358 139.54C270.238 134.5 264.078 127.57 259.878 118.75C255.678 109.93 253.578 99.85 253.578 88.51V58.48C253.578 46.86 255.678 36.71 259.878 28.03C264.078 19.21 270.308 12.35 278.568 7.44999C286.968 2.54999 297.468 0.099988 310.068 0.099988C316.228 0.099988 322.598 0.799991 329.178 2.2C335.758 3.46 342.968 5.84 350.808 9.33999L343.038 31.39C336.178 28.73 330.228 26.84 325.188 25.72C320.288 24.46 315.388 23.83 310.488 23.83C299.568 23.83 291.658 26.98 286.758 33.28C281.858 39.44 279.408 47.84 279.408 58.48V88.51C279.408 98.59 281.858 106.85 286.758 113.29C291.798 119.73 299.638 122.95 310.278 122.95C313.498 122.95 316.998 122.67 320.778 122.11C324.558 121.55 328.198 120.78 331.698 119.8V88.51H308.598V66.46H354.588V135.76ZM411.821 92.5V145H386.621V2.2H434.291C448.711 2.2 459.771 5.91 467.471 13.33C475.311 20.61 479.231 30.41 479.231 42.73V51.76C479.231 59.88 477.481 67.02 473.981 73.18C470.481 79.34 465.441 84.03 458.861 87.25C470.341 106.85 480.141 126.1 488.261 145H459.491C452.491 127.5 444.161 110 434.501 92.5H411.821ZM434.291 25.3H411.821V69.4H434.291C440.451 69.4 445.141 67.86 448.361 64.78C451.721 61.56 453.401 57.22 453.401 51.76V42.73C453.401 37.41 451.721 33.21 448.361 30.13C445.141 26.91 440.451 25.3 434.291 25.3ZM615.6 58.48V88.51C615.6 106.71 611.05 121.06 601.95 131.56C592.85 141.92 579.55 147.1 562.05 147.1C544.41 147.1 531.04 141.92 521.94 131.56C512.98 121.06 508.5 106.71 508.5 88.51V58.48C508.5 40.28 512.98 26 521.94 15.64C531.04 5.27999 544.41 0.099988 562.05 0.099988C579.55 0.099988 592.85 5.27999 601.95 15.64C611.05 26 615.6 40.28 615.6 58.48ZM589.77 58.48C589.77 47 587.53 38.39 583.05 32.65C578.57 26.77 571.57 23.83 562.05 23.83C552.53 23.83 545.53 26.77 541.05 32.65C536.57 38.39 534.33 47 534.33 58.48V88.51C534.33 99.99 536.57 108.67 541.05 114.55C545.53 120.43 552.53 123.37 562.05 123.37C571.57 123.37 578.57 120.43 583.05 114.55C587.53 108.67 589.77 99.99 589.77 88.51V58.48ZM672.856 58.69L680.836 111.61L709.396 2.2H732.076L760.426 110.77L769.246 58.69L780.166 2.2H805.786L773.656 145H747.826L720.316 38.74L692.596 145H666.766L634.636 2.2H661.936L672.856 58.69ZM904.146 123.79C920.386 123.79 928.506 117.77 928.506 105.73C928.506 100.83 927.246 96.98 924.726 94.18C922.346 91.38 917.866 88.93 911.286 86.83L894.066 81.16C873.486 74.44 863.196 60.93 863.196 40.63C863.196 28.87 866.836 19.21 874.116 11.65C881.536 3.94999 893.086 0.099988 908.766 0.099988C915.346 0.099988 921.856 0.869991 928.296 2.41C934.736 3.80999 941.596 6.11999 948.876 9.33999L941.106 30.97C934.386 28.31 928.646 26.42 923.886 25.3C919.266 24.04 914.506 23.41 909.606 23.41C903.166 23.41 898.056 24.6 894.276 26.98C890.636 29.22 888.816 33.35 888.816 39.37C888.816 43.85 890.076 47.56 892.596 50.5C895.256 53.3 899.596 55.68 905.616 57.64L922.836 63.31C933.196 66.81 940.966 71.92 946.146 78.64C951.466 85.22 954.126 93.97 954.126 104.89C954.126 117.49 950.136 127.71 942.156 135.55C934.176 143.25 921.646 147.1 904.566 147.1C897.846 147.1 890.846 146.33 883.566 144.79C876.426 143.11 868.586 140.31 860.046 136.39L867.816 114.76C875.656 118.12 882.306 120.5 887.766 121.9C893.366 123.16 898.826 123.79 904.146 123.79ZM1082.77 58.48V88.51C1082.77 106.71 1078.22 121.06 1069.12 131.56C1060.02 141.92 1046.72 147.1 1029.22 147.1C1011.58 147.1 998.208 141.92 989.108 131.56C980.148 121.06 975.668 106.71 975.668 88.51V58.48C975.668 40.28 980.148 26 989.108 15.64C998.208 5.27999 1011.58 0.099988 1029.22 0.099988C1046.72 0.099988 1060.02 5.27999 1069.12 15.64C1078.22 26 1082.77 40.28 1082.77 58.48ZM1056.94 58.48C1056.94 47 1054.7 38.39 1050.22 32.65C1045.74 26.77 1038.74 23.83 1029.22 23.83C1019.7 23.83 1012.7 26.77 1008.22 32.65C1003.74 38.39 1001.5 47 1001.5 58.48V88.51C1001.5 99.99 1003.74 108.67 1008.22 114.55C1012.7 120.43 1019.7 123.37 1029.22 123.37C1038.74 123.37 1045.74 120.43 1050.22 114.55C1054.7 108.67 1056.94 99.99 1056.94 88.51V58.48ZM1189.16 90.19H1141.28V145H1116.08V2.2H1195.46V26.35H1141.28V66.04H1189.16V90.19ZM1205.1 26.35V2.2H1310.1V26.35H1270.2V145H1245V26.35H1205.1ZM1356.59 58.69L1364.57 111.61L1393.13 2.2H1415.81L1444.16 110.77L1452.98 58.69L1463.9 2.2H1489.52L1457.39 145H1431.56L1404.05 38.74L1376.33 145H1350.5L1318.37 2.2H1345.67L1356.59 58.69ZM1584.42 145L1575.6 117.07H1526.67L1517.85 145H1492.86L1540.53 2.2H1562.79L1610.67 145H1584.42ZM1540.32 73.39L1533.81 93.97H1568.25L1561.74 73.39L1551.24 37.27L1540.32 73.39ZM1659.72 92.5V145H1634.52V2.2H1682.19C1696.61 2.2 1707.67 5.91 1715.37 13.33C1723.21 20.61 1727.13 30.41 1727.13 42.73V51.76C1727.13 59.88 1725.38 67.02 1721.88 73.18C1718.38 79.34 1713.34 84.03 1706.76 87.25C1718.24 106.85 1728.04 126.1 1736.16 145H1707.39C1700.39 127.5 1692.06 110 1682.4 92.5H1659.72ZM1682.19 25.3H1659.72V69.4H1682.19C1688.35 69.4 1693.04 67.86 1696.26 64.78C1699.62 61.56 1701.3 57.22 1701.3 51.76V42.73C1701.3 37.41 1699.62 33.21 1696.26 30.13C1693.04 26.91 1688.35 25.3 1682.19 25.3ZM1845.23 120.85V145H1762.49V2.2H1843.13V26.35H1787.69V60.58H1836.83V84.73H1787.69V120.85H1845.23ZM1948.2 123.79C1964.44 123.79 1972.56 117.77 1972.56 105.73C1972.56 100.83 1971.3 96.98 1968.78 94.18C1966.4 91.38 1961.92 88.93 1955.34 86.83L1938.12 81.16C1917.54 74.44 1907.25 60.93 1907.25 40.63C1907.25 28.87 1910.89 19.21 1918.17 11.65C1925.59 3.94999 1937.14 0.099988 1952.82 0.099988C1959.4 0.099988 1965.91 0.869991 1972.35 2.41C1978.79 3.80999 1985.65 6.11999 1992.93 9.33999L1985.16 30.97C1978.44 28.31 1972.7 26.42 1967.94 25.3C1963.32 24.04 1958.56 23.41 1953.66 23.41C1947.22 23.41 1942.11 24.6 1938.33 26.98C1934.69 29.22 1932.87 33.35 1932.87 39.37C1932.87 43.85 1934.13 47.56 1936.65 50.5C1939.31 53.3 1943.65 55.68 1949.67 57.64L1966.89 63.31C1977.25 66.81 1985.02 71.92 1990.2 78.64C1995.52 85.22 1998.18 93.97 1998.18 104.89C1998.18 117.49 1994.19 127.71 1986.21 135.55C1978.23 143.25 1965.7 147.1 1948.62 147.1C1941.9 147.1 1934.9 146.33 1927.62 144.79C1920.48 143.11 1912.64 140.31 1904.1 136.39L1911.87 114.76C1919.71 118.12 1926.36 120.5 1931.82 121.9C1937.42 123.16 1942.88 123.79 1948.2 123.79ZM2008.8 26.35V2.2H2113.8V26.35H2073.9V145H2048.7V26.35H2008.8ZM2132.99 2.2H2158.82V93.76C2158.82 103 2160.85 110.28 2164.91 115.6C2168.97 120.78 2175.48 123.37 2184.44 123.37C2193.4 123.37 2199.91 120.78 2203.97 115.6C2208.03 110.28 2210.06 103 2210.06 93.76V2.2H2235.89V93.76C2235.89 109.86 2231.62 122.81 2223.08 132.61C2214.54 142.27 2201.66 147.1 2184.44 147.1C2167.08 147.1 2154.13 142.27 2145.59 132.61C2137.19 122.81 2132.99 109.86 2132.99 93.76V2.2ZM2272.11 145V2.2H2320.41C2337.49 2.2 2350.51 6.96 2359.47 16.48C2368.43 26 2372.91 40 2372.91 58.48V88.51C2372.91 107.13 2368.43 121.2 2359.47 130.72C2350.51 140.24 2337.49 145 2320.41 145H2272.11ZM2319.36 26.35H2297.31V120.85H2319.36C2329.3 120.85 2336.37 118.4 2340.57 113.5C2344.91 108.6 2347.08 100.27 2347.08 88.51V58.48C2347.08 46.86 2344.91 38.6 2340.57 33.7C2336.37 28.8 2329.3 26.35 2319.36 26.35ZM2431.43 145H2406.23V2.2H2431.43V145ZM2571.84 58.48V88.51C2571.84 106.71 2567.29 121.06 2558.19 131.56C2549.09 141.92 2535.79 147.1 2518.29 147.1C2500.65 147.1 2487.28 141.92 2478.18 131.56C2469.22 121.06 2464.74 106.71 2464.74 88.51V58.48C2464.74 40.28 2469.22 26 2478.18 15.64C2487.28 5.27999 2500.65 0.099988 2518.29 0.099988C2535.79 0.099988 2549.09 5.27999 2558.19 15.64C2567.29 26 2571.84 40.28 2571.84 58.48ZM2546.01 58.48C2546.01 47 2543.77 38.39 2539.29 32.65C2534.81 26.77 2527.81 23.83 2518.29 23.83C2508.77 23.83 2501.77 26.77 2497.29 32.65C2492.81 38.39 2490.57 47 2490.57 58.48V88.51C2490.57 99.99 2492.81 108.67 2497.29 114.55C2501.77 120.43 2508.77 123.37 2518.29 123.37C2527.81 123.37 2534.81 120.43 2539.29 114.55C2543.77 108.67 2546.01 99.99 2546.01 88.51V58.48Z" fill="#FFC700"/>
</svg>
