<svg width="1101" height="1080" viewBox="0 0 1101 1080" fill="none" xmlns="http://www.w3.org/2000/svg">
<rect width="1101" height="1080" fill="black"/>
<mask id="path-1-inside-1_6_8" fill="white">
<path d="M779 539.5C779 606.202 754.873 670.172 711.927 717.337C668.982 764.503 610.735 791 550 791C489.265 791 431.018 764.503 388.073 717.337C345.127 670.172 321 606.202 321 539.5L433.355 539.5C433.355 573.476 445.644 606.06 467.519 630.085C489.395 654.109 519.064 667.606 550 667.606C580.936 667.606 610.605 654.109 632.481 630.085C654.356 606.06 666.645 573.476 666.645 539.5H779Z"/>
</mask>
<path d="M779 539.5C779 606.202 754.873 670.172 711.927 717.337C668.982 764.503 610.735 791 550 791C489.265 791 431.018 764.503 388.073 717.337C345.127 670.172 321 606.202 321 539.5L433.355 539.5C433.355 573.476 445.644 606.06 467.519 630.085C489.395 654.109 519.064 667.606 550 667.606C580.936 667.606 610.605 654.109 632.481 630.085C654.356 606.06 666.645 573.476 666.645 539.5H779Z" fill="white" stroke="white" stroke-width="24" mask="url(#path-1-inside-1_6_8)"/>
<rect x="667" y="464" width="112" height="86" fill="white"/>
<path d="M321 345L433 447V550H321V345Z" fill="white"/>
<path d="M781 345L781 447H667L781 345Z" fill="white"/>
<rect x="533" y="345" width="35" height="158" fill="white"/>
</svg>
