<svg width="460" height="503" viewBox="0 0 460 503" fill="none" xmlns="http://www.w3.org/2000/svg">
<mask id="path-1-inside-1_14_44" fill="white">
<path d="M458 251.5C458 318.202 433.873 382.172 390.927 429.337C347.982 476.503 289.735 503 229 503C168.265 503 110.018 476.503 67.0726 429.337C24.1267 382.172 9.17067e-06 318.202 0 251.5L112.355 251.5C112.355 285.476 124.644 318.06 146.519 342.085C168.395 366.109 198.064 379.606 229 379.606C259.936 379.606 289.605 366.109 311.481 342.085C333.356 318.06 345.645 285.476 345.645 251.5H458Z"/>
</mask>
<path d="M458 251.5C458 318.202 433.873 382.172 390.927 429.337C347.982 476.503 289.735 503 229 503C168.265 503 110.018 476.503 67.0726 429.337C24.1267 382.172 9.17067e-06 318.202 0 251.5L112.355 251.5C112.355 285.476 124.644 318.06 146.519 342.085C168.395 366.109 198.064 379.606 229 379.606C259.936 379.606 289.605 366.109 311.481 342.085C333.356 318.06 345.645 285.476 345.645 251.5H458Z" fill="#FFC700" stroke="#FFC700" stroke-width="24" mask="url(#path-1-inside-1_14_44)"/>
<rect x="346" y="176" width="112" height="86" fill="#FFC700"/>
<path d="M0 57L112 159V262H0V57Z" fill="#FFC700"/>
<path d="M460 57L460 159H346L460 57Z" fill="#FFC700"/>
<rect x="212" y="57" width="35" height="158" fill="#FFC700"/>
</svg>
