<svg width="3200" height="503" viewBox="0 0 3200 503" fill="none" xmlns="http://www.w3.org/2000/svg">
<mask id="path-1-inside-1_13_42" fill="white">
<path d="M458 251.5C458 318.202 433.873 382.172 390.927 429.337C347.982 476.503 289.735 503 229 503C168.265 503 110.018 476.503 67.0726 429.337C24.1267 382.172 9.17067e-06 318.202 0 251.5L112.355 251.5C112.355 285.476 124.644 318.06 146.519 342.085C168.395 366.109 198.064 379.606 229 379.606C259.936 379.606 289.605 366.109 311.481 342.085C333.356 318.06 345.645 285.476 345.645 251.5H458Z"/>
</mask>
<path d="M458 251.5C458 318.202 433.873 382.172 390.927 429.337C347.982 476.503 289.735 503 229 503C168.265 503 110.018 476.503 67.0726 429.337C24.1267 382.172 9.17067e-06 318.202 0 251.5L112.355 251.5C112.355 285.476 124.644 318.06 146.519 342.085C168.395 366.109 198.064 379.606 229 379.606C259.936 379.606 289.605 366.109 311.481 342.085C333.356 318.06 345.645 285.476 345.645 251.5H458Z" fill="#FFC700" stroke="#FFC700" stroke-width="24" mask="url(#path-1-inside-1_13_42)"/>
<rect x="346" y="176" width="112" height="86" fill="#FFC700"/>
<path d="M0 57L112 159V262H0V57Z" fill="#FFC700"/>
<path d="M460 57L460 159H346L460 57Z" fill="#FFC700"/>
<path d="M614.38 190.2H640.21V281.76C640.21 291 642.24 298.28 646.3 303.6C650.36 308.78 656.87 311.37 665.83 311.37C674.79 311.37 681.3 308.78 685.36 303.6C689.42 298.28 691.45 291 691.45 281.76V190.2H717.28V281.76C717.28 297.86 713.01 310.81 704.47 320.61C695.93 330.27 683.05 335.1 665.83 335.1C648.47 335.1 635.52 330.27 626.98 320.61C618.58 310.81 614.38 297.86 614.38 281.76V190.2ZM753.502 333V190.2H800.542C815.522 190.2 826.722 193.98 834.142 201.54C841.702 209.1 845.482 219.18 845.482 231.78V242.91C845.482 255.51 841.702 265.66 834.142 273.36C826.722 280.92 815.522 284.7 800.542 284.7H778.702V333H753.502ZM800.542 214.35H778.702V260.55H800.542C806.702 260.55 811.392 259.01 814.612 255.93C817.972 252.85 819.652 248.51 819.652 242.91V231.78C819.652 226.32 817.972 222.05 814.612 218.97C811.392 215.89 806.702 214.35 800.542 214.35ZM968.588 323.76C965.088 325.86 959.278 328.31 951.158 331.11C943.178 333.77 933.798 335.1 923.018 335.1C910.838 335.1 900.618 332.58 892.358 327.54C884.238 322.5 878.078 315.57 873.878 306.75C869.678 297.93 867.578 287.85 867.578 276.51V246.48C867.578 234.86 869.678 224.71 873.878 216.03C878.078 207.21 884.308 200.35 892.568 195.45C900.968 190.55 911.468 188.1 924.068 188.1C930.228 188.1 936.598 188.8 943.178 190.2C949.758 191.46 956.968 193.84 964.808 197.34L957.038 219.39C950.178 216.73 944.228 214.84 939.188 213.72C934.288 212.46 929.388 211.83 924.488 211.83C913.568 211.83 905.658 214.98 900.758 221.28C895.858 227.44 893.408 235.84 893.408 246.48V276.51C893.408 286.59 895.858 294.85 900.758 301.29C905.798 307.73 913.638 310.95 924.278 310.95C927.498 310.95 930.998 310.67 934.778 310.11C938.558 309.55 942.198 308.78 945.698 307.8V276.51H922.598V254.46H968.588V323.76ZM1025.82 280.5V333H1000.62V190.2H1048.29C1062.71 190.2 1073.77 193.91 1081.47 201.33C1089.31 208.61 1093.23 218.41 1093.23 230.73V239.76C1093.23 247.88 1091.48 255.02 1087.98 261.18C1084.48 267.34 1079.44 272.03 1072.86 275.25C1084.34 294.85 1094.14 314.1 1102.26 333H1073.49C1066.49 315.5 1058.16 298 1048.5 280.5H1025.82ZM1048.29 213.3H1025.82V257.4H1048.29C1054.45 257.4 1059.14 255.86 1062.36 252.78C1065.72 249.56 1067.4 245.22 1067.4 239.76V230.73C1067.4 225.41 1065.72 221.21 1062.36 218.13C1059.14 214.91 1054.45 213.3 1048.29 213.3ZM1229.6 246.48V276.51C1229.6 294.71 1225.05 309.06 1215.95 319.56C1206.85 329.92 1193.55 335.1 1176.05 335.1C1158.41 335.1 1145.04 329.92 1135.94 319.56C1126.98 309.06 1122.5 294.71 1122.5 276.51V246.48C1122.5 228.28 1126.98 214 1135.94 203.64C1145.04 193.28 1158.41 188.1 1176.05 188.1C1193.55 188.1 1206.85 193.28 1215.95 203.64C1225.05 214 1229.6 228.28 1229.6 246.48ZM1203.77 246.48C1203.77 235 1201.53 226.39 1197.05 220.65C1192.57 214.77 1185.57 211.83 1176.05 211.83C1166.53 211.83 1159.53 214.77 1155.05 220.65C1150.57 226.39 1148.33 235 1148.33 246.48V276.51C1148.33 287.99 1150.57 296.67 1155.05 302.55C1159.53 308.43 1166.53 311.37 1176.05 311.37C1185.57 311.37 1192.57 308.43 1197.05 302.55C1201.53 296.67 1203.77 287.99 1203.77 276.51V246.48ZM1286.86 246.69L1294.84 299.61L1323.4 190.2H1346.08L1374.43 298.77L1383.25 246.69L1394.17 190.2H1419.79L1387.66 333H1361.83L1334.32 226.74L1306.6 333H1280.77L1248.64 190.2H1275.94L1286.86 246.69ZM1518.15 311.79C1534.39 311.79 1542.51 305.77 1542.51 293.73C1542.51 288.83 1541.25 284.98 1538.73 282.18C1536.35 279.38 1531.87 276.93 1525.29 274.83L1508.07 269.16C1487.49 262.44 1477.2 248.93 1477.2 228.63C1477.2 216.87 1480.84 207.21 1488.12 199.65C1495.54 191.95 1507.09 188.1 1522.77 188.1C1529.35 188.1 1535.86 188.87 1542.3 190.41C1548.74 191.81 1555.6 194.12 1562.88 197.34L1555.11 218.97C1548.39 216.31 1542.65 214.42 1537.89 213.3C1533.27 212.04 1528.51 211.41 1523.61 211.41C1517.17 211.41 1512.06 212.6 1508.28 214.98C1504.64 217.22 1502.82 221.35 1502.82 227.37C1502.82 231.85 1504.08 235.56 1506.6 238.5C1509.26 241.3 1513.6 243.68 1519.62 245.64L1536.84 251.31C1547.2 254.81 1554.97 259.92 1560.15 266.64C1565.47 273.22 1568.13 281.97 1568.13 292.89C1568.13 305.49 1564.14 315.71 1556.16 323.55C1548.18 331.25 1535.65 335.1 1518.57 335.1C1511.85 335.1 1504.85 334.33 1497.57 332.79C1490.43 331.11 1482.59 328.31 1474.05 324.39L1481.82 302.76C1489.66 306.12 1496.31 308.5 1501.77 309.9C1507.37 311.16 1512.83 311.79 1518.15 311.79ZM1696.77 246.48V276.51C1696.77 294.71 1692.22 309.06 1683.12 319.56C1674.02 329.92 1660.72 335.1 1643.22 335.1C1625.58 335.1 1612.21 329.92 1603.11 319.56C1594.15 309.06 1589.67 294.71 1589.67 276.51V246.48C1589.67 228.28 1594.15 214 1603.11 203.64C1612.21 193.28 1625.58 188.1 1643.22 188.1C1660.72 188.1 1674.02 193.28 1683.12 203.64C1692.22 214 1696.77 228.28 1696.77 246.48ZM1670.94 246.48C1670.94 235 1668.7 226.39 1664.22 220.65C1659.74 214.77 1652.74 211.83 1643.22 211.83C1633.7 211.83 1626.7 214.77 1622.22 220.65C1617.74 226.39 1615.5 235 1615.5 246.48V276.51C1615.5 287.99 1617.74 296.67 1622.22 302.55C1626.7 308.43 1633.7 311.37 1643.22 311.37C1652.74 311.37 1659.74 308.43 1664.22 302.55C1668.7 296.67 1670.94 287.99 1670.94 276.51V246.48ZM1803.16 278.19H1755.28V333H1730.08V190.2H1809.46V214.35H1755.28V254.04H1803.16V278.19ZM1819.1 214.35V190.2H1924.1V214.35H1884.2V333H1859V214.35H1819.1ZM1970.59 246.69L1978.57 299.61L2007.13 190.2H2029.81L2058.16 298.77L2066.98 246.69L2077.9 190.2H2103.52L2071.39 333H2045.56L2018.05 226.74L1990.33 333H1964.5L1932.37 190.2H1959.67L1970.59 246.69ZM2198.42 333L2189.6 305.07H2140.67L2131.85 333H2106.86L2154.53 190.2H2176.79L2224.67 333H2198.42ZM2154.32 261.39L2147.81 281.97H2182.25L2175.74 261.39L2165.24 225.27L2154.32 261.39ZM2273.72 280.5V333H2248.52V190.2H2296.19C2310.61 190.2 2321.67 193.91 2329.37 201.33C2337.21 208.61 2341.13 218.41 2341.13 230.73V239.76C2341.13 247.88 2339.38 255.02 2335.88 261.18C2332.38 267.34 2327.34 272.03 2320.76 275.25C2332.24 294.85 2342.04 314.1 2350.16 333H2321.39C2314.39 315.5 2306.06 298 2296.4 280.5H2273.72ZM2296.19 213.3H2273.72V257.4H2296.19C2302.35 257.4 2307.04 255.86 2310.26 252.78C2313.62 249.56 2315.3 245.22 2315.3 239.76V230.73C2315.3 225.41 2313.62 221.21 2310.26 218.13C2307.04 214.91 2302.35 213.3 2296.19 213.3ZM2459.23 308.85V333H2376.49V190.2H2457.13V214.35H2401.69V248.58H2450.83V272.73H2401.69V308.85H2459.23ZM2562.2 311.79C2578.44 311.79 2586.56 305.77 2586.56 293.73C2586.56 288.83 2585.3 284.98 2582.78 282.18C2580.4 279.38 2575.92 276.93 2569.34 274.83L2552.12 269.16C2531.54 262.44 2521.25 248.93 2521.25 228.63C2521.25 216.87 2524.89 207.21 2532.17 199.65C2539.59 191.95 2551.14 188.1 2566.82 188.1C2573.4 188.1 2579.91 188.87 2586.35 190.41C2592.79 191.81 2599.65 194.12 2606.93 197.34L2599.16 218.97C2592.44 216.31 2586.7 214.42 2581.94 213.3C2577.32 212.04 2572.56 211.41 2567.66 211.41C2561.22 211.41 2556.11 212.6 2552.33 214.98C2548.69 217.22 2546.87 221.35 2546.87 227.37C2546.87 231.85 2548.13 235.56 2550.65 238.5C2553.31 241.3 2557.65 243.68 2563.67 245.64L2580.89 251.31C2591.25 254.81 2599.02 259.92 2604.2 266.64C2609.52 273.22 2612.18 281.97 2612.18 292.89C2612.18 305.49 2608.19 315.71 2600.21 323.55C2592.23 331.25 2579.7 335.1 2562.62 335.1C2555.9 335.1 2548.9 334.33 2541.62 332.79C2534.48 331.11 2526.64 328.31 2518.1 324.39L2525.87 302.76C2533.71 306.12 2540.36 308.5 2545.82 309.9C2551.42 311.16 2556.88 311.79 2562.2 311.79ZM2622.8 214.35V190.2H2727.8V214.35H2687.9V333H2662.7V214.35H2622.8ZM2746.99 190.2H2772.82V281.76C2772.82 291 2774.85 298.28 2778.91 303.6C2782.97 308.78 2789.48 311.37 2798.44 311.37C2807.4 311.37 2813.91 308.78 2817.97 303.6C2822.03 298.28 2824.06 291 2824.06 281.76V190.2H2849.89V281.76C2849.89 297.86 2845.62 310.81 2837.08 320.61C2828.54 330.27 2815.66 335.1 2798.44 335.1C2781.08 335.1 2768.13 330.27 2759.59 320.61C2751.19 310.81 2746.99 297.86 2746.99 281.76V190.2ZM2886.11 333V190.2H2934.41C2951.49 190.2 2964.51 194.96 2973.47 204.48C2982.43 214 2986.91 228 2986.91 246.48V276.51C2986.91 295.13 2982.43 309.2 2973.47 318.72C2964.51 328.24 2951.49 333 2934.41 333H2886.11ZM2933.36 214.35H2911.31V308.85H2933.36C2943.3 308.85 2950.37 306.4 2954.57 301.5C2958.91 296.6 2961.08 288.27 2961.08 276.51V246.48C2961.08 234.86 2958.91 226.6 2954.57 221.7C2950.37 216.8 2943.3 214.35 2933.36 214.35ZM3045.43 333H3020.23V190.2H3045.43V333ZM3185.84 246.48V276.51C3185.84 294.71 3181.29 309.06 3172.19 319.56C3163.09 329.92 3149.79 335.1 3132.29 335.1C3114.65 335.1 3101.28 329.92 3092.18 319.56C3083.22 309.06 3078.74 294.71 3078.74 276.51V246.48C3078.74 228.28 3083.22 214 3092.18 203.64C3101.28 193.28 3114.65 188.1 3132.29 188.1C3149.79 188.1 3163.09 193.28 3172.19 203.64C3181.29 214 3185.84 228.28 3185.84 246.48ZM3160.01 246.48C3160.01 235 3157.77 226.39 3153.29 220.65C3148.81 214.77 3141.81 211.83 3132.29 211.83C3122.77 211.83 3115.77 214.77 3111.29 220.65C3106.81 226.39 3104.57 235 3104.57 246.48V276.51C3104.57 287.99 3106.81 296.67 3111.29 302.55C3115.77 308.43 3122.77 311.37 3132.29 311.37C3141.81 311.37 3148.81 308.43 3153.29 302.55C3157.77 296.67 3160.01 287.99 3160.01 276.51V246.48Z" fill="#FFC700"/>
<rect x="212" y="57" width="35" height="158" fill="#FFC700"/>
</svg>
