<svg width="3794" height="1080" viewBox="0 0 3794 1080" fill="none" xmlns="http://www.w3.org/2000/svg">
<rect width="3794" height="1080" fill="black"/>
<path d="M990.38 479.2H1016.21V570.76C1016.21 580 1018.24 587.28 1022.3 592.6C1026.36 597.78 1032.87 600.37 1041.83 600.37C1050.79 600.37 1057.3 597.78 1061.36 592.6C1065.42 587.28 1067.45 580 1067.45 570.76V479.2H1093.28V570.76C1093.28 586.86 1089.01 599.81 1080.47 609.61C1071.93 619.27 1059.05 624.1 1041.83 624.1C1024.47 624.1 1011.52 619.27 1002.98 609.61C994.58 599.81 990.38 586.86 990.38 570.76V479.2ZM1129.5 622V479.2H1176.54C1191.52 479.2 1202.72 482.98 1210.14 490.54C1217.7 498.1 1221.48 508.18 1221.48 520.78V531.91C1221.48 544.51 1217.7 554.66 1210.14 562.36C1202.72 569.92 1191.52 573.7 1176.54 573.7H1154.7V622H1129.5ZM1176.54 503.35H1154.7V549.55H1176.54C1182.7 549.55 1187.39 548.01 1190.61 544.93C1193.97 541.85 1195.65 537.51 1195.65 531.91V520.78C1195.65 515.32 1193.97 511.05 1190.61 507.97C1187.39 504.89 1182.7 503.35 1176.54 503.35ZM1344.59 612.76C1341.09 614.86 1335.28 617.31 1327.16 620.11C1319.18 622.77 1309.8 624.1 1299.02 624.1C1286.84 624.1 1276.62 621.58 1268.36 616.54C1260.24 611.5 1254.08 604.57 1249.88 595.75C1245.68 586.93 1243.58 576.85 1243.58 565.51V535.48C1243.58 523.86 1245.68 513.71 1249.88 505.03C1254.08 496.21 1260.31 489.35 1268.57 484.45C1276.97 479.55 1287.47 477.1 1300.07 477.1C1306.23 477.1 1312.6 477.8 1319.18 479.2C1325.76 480.46 1332.97 482.84 1340.81 486.34L1333.04 508.39C1326.18 505.73 1320.23 503.84 1315.19 502.72C1310.29 501.46 1305.39 500.83 1300.49 500.83C1289.57 500.83 1281.66 503.98 1276.76 510.28C1271.86 516.44 1269.41 524.84 1269.41 535.48V565.51C1269.41 575.59 1271.86 583.85 1276.76 590.29C1281.8 596.73 1289.64 599.95 1300.28 599.95C1303.5 599.95 1307 599.67 1310.78 599.11C1314.56 598.55 1318.2 597.78 1321.7 596.8V565.51H1298.6V543.46H1344.59V612.76ZM1401.82 569.5V622H1376.62V479.2H1424.29C1438.71 479.2 1449.77 482.91 1457.47 490.33C1465.31 497.61 1469.23 507.41 1469.23 519.73V528.76C1469.23 536.88 1467.48 544.02 1463.98 550.18C1460.48 556.34 1455.44 561.03 1448.86 564.25C1460.34 583.85 1470.14 603.1 1478.26 622H1449.49C1442.49 604.5 1434.16 587 1424.5 569.5H1401.82ZM1424.29 502.3H1401.82V546.4H1424.29C1430.45 546.4 1435.14 544.86 1438.36 541.78C1441.72 538.56 1443.4 534.22 1443.4 528.76V519.73C1443.4 514.41 1441.72 510.21 1438.36 507.13C1435.14 503.91 1430.45 502.3 1424.29 502.3ZM1605.6 535.48V565.51C1605.6 583.71 1601.05 598.06 1591.95 608.56C1582.85 618.92 1569.55 624.1 1552.05 624.1C1534.41 624.1 1521.04 618.92 1511.94 608.56C1502.98 598.06 1498.5 583.71 1498.5 565.51V535.48C1498.5 517.28 1502.98 503 1511.94 492.64C1521.04 482.28 1534.41 477.1 1552.05 477.1C1569.55 477.1 1582.85 482.28 1591.95 492.64C1601.05 503 1605.6 517.28 1605.6 535.48ZM1579.77 535.48C1579.77 524 1577.53 515.39 1573.05 509.65C1568.57 503.77 1561.57 500.83 1552.05 500.83C1542.53 500.83 1535.53 503.77 1531.05 509.65C1526.57 515.39 1524.33 524 1524.33 535.48V565.51C1524.33 576.99 1526.57 585.67 1531.05 591.55C1535.53 597.43 1542.53 600.37 1552.05 600.37C1561.57 600.37 1568.57 597.43 1573.05 591.55C1577.53 585.67 1579.77 576.99 1579.77 565.51V535.48ZM1662.86 535.69L1670.84 588.61L1699.4 479.2H1722.08L1750.43 587.77L1759.25 535.69L1770.17 479.2H1795.79L1763.66 622H1737.83L1710.32 515.74L1682.6 622H1656.77L1624.64 479.2H1651.94L1662.86 535.69ZM1894.15 600.79C1910.39 600.79 1918.51 594.77 1918.51 582.73C1918.51 577.83 1917.25 573.98 1914.73 571.18C1912.35 568.38 1907.87 565.93 1901.29 563.83L1884.07 558.16C1863.49 551.44 1853.2 537.93 1853.2 517.63C1853.2 505.87 1856.84 496.21 1864.12 488.65C1871.54 480.95 1883.09 477.1 1898.77 477.1C1905.35 477.1 1911.86 477.87 1918.3 479.41C1924.74 480.81 1931.6 483.12 1938.88 486.34L1931.11 507.97C1924.39 505.31 1918.65 503.42 1913.89 502.3C1909.27 501.04 1904.51 500.41 1899.61 500.41C1893.17 500.41 1888.06 501.6 1884.28 503.98C1880.64 506.22 1878.82 510.35 1878.82 516.37C1878.82 520.85 1880.08 524.56 1882.6 527.5C1885.26 530.3 1889.6 532.68 1895.62 534.64L1912.84 540.31C1923.2 543.81 1930.97 548.92 1936.15 555.64C1941.47 562.22 1944.13 570.97 1944.13 581.89C1944.13 594.49 1940.14 604.71 1932.16 612.55C1924.18 620.25 1911.65 624.1 1894.57 624.1C1887.85 624.1 1880.85 623.33 1873.57 621.79C1866.43 620.11 1858.59 617.31 1850.05 613.39L1857.82 591.76C1865.66 595.12 1872.31 597.5 1877.77 598.9C1883.37 600.16 1888.83 600.79 1894.15 600.79ZM2072.77 535.48V565.51C2072.77 583.71 2068.22 598.06 2059.12 608.56C2050.02 618.92 2036.72 624.1 2019.22 624.1C2001.58 624.1 1988.21 618.92 1979.11 608.56C1970.15 598.06 1965.67 583.71 1965.67 565.51V535.48C1965.67 517.28 1970.15 503 1979.11 492.64C1988.21 482.28 2001.58 477.1 2019.22 477.1C2036.72 477.1 2050.02 482.28 2059.12 492.64C2068.22 503 2072.77 517.28 2072.77 535.48ZM2046.94 535.48C2046.94 524 2044.7 515.39 2040.22 509.65C2035.74 503.77 2028.74 500.83 2019.22 500.83C2009.7 500.83 2002.7 503.77 1998.22 509.65C1993.74 515.39 1991.5 524 1991.5 535.48V565.51C1991.5 576.99 1993.74 585.67 1998.22 591.55C2002.7 597.43 2009.7 600.37 2019.22 600.37C2028.74 600.37 2035.74 597.43 2040.22 591.55C2044.7 585.67 2046.94 576.99 2046.94 565.51V535.48ZM2179.16 567.19H2131.28V622H2106.08V479.2H2185.46V503.35H2131.28V543.04H2179.16V567.19ZM2195.1 503.35V479.2H2300.1V503.35H2260.2V622H2235V503.35H2195.1ZM2346.59 535.69L2354.57 588.61L2383.13 479.2H2405.81L2434.16 587.77L2442.98 535.69L2453.9 479.2H2479.52L2447.39 622H2421.56L2394.05 515.74L2366.33 622H2340.5L2308.37 479.2H2335.67L2346.59 535.69ZM2574.42 622L2565.6 594.07H2516.67L2507.85 622H2482.86L2530.53 479.2H2552.79L2600.67 622H2574.42ZM2530.32 550.39L2523.81 570.97H2558.25L2551.74 550.39L2541.24 514.27L2530.32 550.39ZM2649.72 569.5V622H2624.52V479.2H2672.19C2686.61 479.2 2697.67 482.91 2705.37 490.33C2713.21 497.61 2717.13 507.41 2717.13 519.73V528.76C2717.13 536.88 2715.38 544.02 2711.88 550.18C2708.38 556.34 2703.34 561.03 2696.76 564.25C2708.24 583.85 2718.04 603.1 2726.16 622H2697.39C2690.39 604.5 2682.06 587 2672.4 569.5H2649.72ZM2672.19 502.3H2649.72V546.4H2672.19C2678.35 546.4 2683.04 544.86 2686.26 541.78C2689.62 538.56 2691.3 534.22 2691.3 528.76V519.73C2691.3 514.41 2689.62 510.21 2686.26 507.13C2683.04 503.91 2678.35 502.3 2672.19 502.3ZM2835.23 597.85V622H2752.49V479.2H2833.13V503.35H2777.69V537.58H2826.83V561.73H2777.69V597.85H2835.23ZM2938.2 600.79C2954.44 600.79 2962.56 594.77 2962.56 582.73C2962.56 577.83 2961.3 573.98 2958.78 571.18C2956.4 568.38 2951.92 565.93 2945.34 563.83L2928.12 558.16C2907.54 551.44 2897.25 537.93 2897.25 517.63C2897.25 505.87 2900.89 496.21 2908.17 488.65C2915.59 480.95 2927.14 477.1 2942.82 477.1C2949.4 477.1 2955.91 477.87 2962.35 479.41C2968.79 480.81 2975.65 483.12 2982.93 486.34L2975.16 507.97C2968.44 505.31 2962.7 503.42 2957.94 502.3C2953.32 501.04 2948.56 500.41 2943.66 500.41C2937.22 500.41 2932.11 501.6 2928.33 503.98C2924.69 506.22 2922.87 510.35 2922.87 516.37C2922.87 520.85 2924.13 524.56 2926.65 527.5C2929.31 530.3 2933.65 532.68 2939.67 534.64L2956.89 540.31C2967.25 543.81 2975.02 548.92 2980.2 555.64C2985.52 562.22 2988.18 570.97 2988.18 581.89C2988.18 594.49 2984.19 604.71 2976.21 612.55C2968.23 620.25 2955.7 624.1 2938.62 624.1C2931.9 624.1 2924.9 623.33 2917.62 621.79C2910.48 620.11 2902.64 617.31 2894.1 613.39L2901.87 591.76C2909.71 595.12 2916.36 597.5 2921.82 598.9C2927.42 600.16 2932.88 600.79 2938.2 600.79ZM2998.8 503.35V479.2H3103.8V503.35H3063.9V622H3038.7V503.35H2998.8ZM3122.99 479.2H3148.82V570.76C3148.82 580 3150.85 587.28 3154.91 592.6C3158.97 597.78 3165.48 600.37 3174.44 600.37C3183.4 600.37 3189.91 597.78 3193.97 592.6C3198.03 587.28 3200.06 580 3200.06 570.76V479.2H3225.89V570.76C3225.89 586.86 3221.62 599.81 3213.08 609.61C3204.54 619.27 3191.66 624.1 3174.44 624.1C3157.08 624.1 3144.13 619.27 3135.59 609.61C3127.19 599.81 3122.99 586.86 3122.99 570.76V479.2ZM3262.11 622V479.2H3310.41C3327.49 479.2 3340.51 483.96 3349.47 493.48C3358.43 503 3362.91 517 3362.91 535.48V565.51C3362.91 584.13 3358.43 598.2 3349.47 607.72C3340.51 617.24 3327.49 622 3310.41 622H3262.11ZM3309.36 503.35H3287.31V597.85H3309.36C3319.3 597.85 3326.37 595.4 3330.57 590.5C3334.91 585.6 3337.08 577.27 3337.08 565.51V535.48C3337.08 523.86 3334.91 515.6 3330.57 510.7C3326.37 505.8 3319.3 503.35 3309.36 503.35ZM3421.43 622H3396.23V479.2H3421.43V622ZM3561.84 535.48V565.51C3561.84 583.71 3557.29 598.06 3548.19 608.56C3539.09 618.92 3525.79 624.1 3508.29 624.1C3490.65 624.1 3477.28 618.92 3468.18 608.56C3459.22 598.06 3454.74 583.71 3454.74 565.51V535.48C3454.74 517.28 3459.22 503 3468.18 492.64C3477.28 482.28 3490.65 477.1 3508.29 477.1C3525.79 477.1 3539.09 482.28 3548.19 492.64C3557.29 503 3561.84 517.28 3561.84 535.48ZM3536.01 535.48C3536.01 524 3533.77 515.39 3529.29 509.65C3524.81 503.77 3517.81 500.83 3508.29 500.83C3498.77 500.83 3491.77 503.77 3487.29 509.65C3482.81 515.39 3480.57 524 3480.57 535.48V565.51C3480.57 576.99 3482.81 585.67 3487.29 591.55C3491.77 597.43 3498.77 600.37 3508.29 600.37C3517.81 600.37 3524.81 597.43 3529.29 591.55C3533.77 585.67 3536.01 576.99 3536.01 565.51V535.48Z" fill="white"/>
<mask id="path-2-inside-1_6_8" fill="white">
<path d="M834 540.5C834 607.202 809.873 671.172 766.927 718.337C723.982 765.503 665.735 792 605 792C544.265 792 486.018 765.503 443.073 718.337C400.127 671.172 376 607.202 376 540.5L488.355 540.5C488.355 574.476 500.644 607.06 522.519 631.085C544.395 655.109 574.064 668.606 605 668.606C635.936 668.606 665.605 655.109 687.481 631.085C709.356 607.06 721.645 574.476 721.645 540.5H834Z"/>
</mask>
<path d="M834 540.5C834 607.202 809.873 671.172 766.927 718.337C723.982 765.503 665.735 792 605 792C544.265 792 486.018 765.503 443.073 718.337C400.127 671.172 376 607.202 376 540.5L488.355 540.5C488.355 574.476 500.644 607.06 522.519 631.085C544.395 655.109 574.064 668.606 605 668.606C635.936 668.606 665.605 655.109 687.481 631.085C709.356 607.06 721.645 574.476 721.645 540.5H834Z" fill="white" stroke="white" stroke-width="24" mask="url(#path-2-inside-1_6_8)"/>
<rect x="722" y="465" width="112" height="86" fill="white"/>
<path d="M376 346L488 448V551H376V346Z" fill="white"/>
<path d="M836 346L836 448H722L836 346Z" fill="white"/>
<rect x="588" y="346" width="35" height="158" fill="white"/>
</svg>
